<svg id="svg" version="1.1" xmlns="http://www.w3.org/2000/svg" xmlns:xlink="http://www.w3.org/1999/xlink" width="300" height="300" viewBox="0, 0, 400,400"><g id="svgg"><path id="path0" d="M237.125 61.848 C 237.019 63.514,236.741 64.664,236.377 64.948 C 236.059 65.197,235.439 66.120,234.999 67.000 C 234.560 67.880,234.097 68.690,233.970 68.800 C 232.180 70.359,232.385 78.079,234.279 80.441 C 236.721 83.486,237.865 84.018,237.414 81.900 C 236.607 78.102,236.991 71.600,238.023 71.600 C 238.506 71.600,239.600 66.294,239.600 63.949 C 239.600 59.046,237.421 57.197,237.125 61.848 M242.097 68.414 C 241.600 68.613,240.986 69.232,240.733 69.788 C 240.479 70.345,240.135 70.800,239.969 70.800 C 239.802 70.800,239.362 71.655,238.991 72.700 C 238.619 73.745,238.121 75.011,237.882 75.514 C 237.567 76.181,237.578 76.784,237.925 77.743 C 238.186 78.465,238.400 79.426,238.400 79.878 C 238.400 81.176,239.484 83.909,240.381 84.872 C 240.831 85.355,241.200 85.923,241.200 86.133 C 241.200 86.344,241.568 86.895,242.018 87.358 C 245.096 90.528,245.811 91.813,244.145 91.179 C 242.774 90.658,242.835 90.300,243.364 95.800 C 243.826 100.598,243.130 105.200,241.943 105.200 C 241.340 105.200,241.576 106.705,242.217 106.951 C 243.551 107.463,238.935 113.113,235.945 114.628 C 234.831 115.192,234.011 115.744,234.121 115.855 C 235.005 116.738,240.891 111.691,242.421 108.737 C 242.838 107.932,243.325 107.212,243.504 107.137 C 243.683 107.062,244.326 106.145,244.932 105.100 C 246.158 102.986,246.592 102.771,246.948 104.100 C 247.354 105.616,247.226 110.803,246.761 111.673 C 246.416 112.318,246.436 112.455,246.857 112.314 C 247.538 112.087,249.012 109.600,248.466 109.600 C 248.242 109.600,247.976 109.915,247.876 110.300 C 247.775 110.685,247.672 110.393,247.646 109.651 C 247.605 108.459,247.674 108.364,248.239 108.832 C 248.957 109.429,249.618 108.678,250.000 106.833 C 250.455 104.632,251.714 105.867,251.802 108.600 C 251.823 109.260,251.895 110.520,251.963 111.400 L 252.086 113.000 252.447 111.200 C 253.237 107.261,254.101 103.600,254.241 103.600 C 255.008 103.600,255.600 107.053,255.600 111.525 C 255.600 115.644,255.690 116.430,256.100 115.871 C 256.460 115.380,256.541 113.989,256.389 110.895 C 256.273 108.533,256.183 106.577,256.189 106.548 C 256.195 106.519,257.341 106.417,258.736 106.320 L 261.271 106.144 261.046 107.272 C 260.922 107.892,260.995 108.400,261.210 108.400 C 261.425 108.400,261.600 108.706,261.600 109.080 C 261.600 109.502,261.739 109.616,261.966 109.380 C 262.499 108.827,262.659 103.401,262.161 102.751 C 261.930 102.448,261.410 101.075,261.007 99.700 C 260.603 98.325,260.124 97.200,259.942 97.200 C 259.760 97.200,259.348 96.570,259.026 95.800 C 258.704 95.030,258.296 94.400,258.118 94.400 C 257.941 94.400,257.565 93.881,257.285 93.246 C 256.488 91.447,254.594 89.214,248.485 82.872 C 242.791 76.961,240.774 71.866,243.177 69.463 C 244.246 68.394,243.631 67.797,242.097 68.414 M258.493 91.722 C 258.694 94.224,259.154 95.425,260.500 96.955 C 260.885 97.393,261.200 97.987,261.200 98.275 C 261.200 98.564,261.380 98.800,261.600 98.800 C 261.820 98.800,262.000 98.628,262.000 98.418 C 262.000 98.208,262.630 97.918,263.400 97.774 C 265.067 97.461,265.111 97.231,263.800 95.673 C 263.250 95.019,262.800 94.285,262.800 94.042 C 262.800 93.799,262.364 93.600,261.832 93.600 C 261.081 93.600,260.804 93.330,260.600 92.400 C 260.455 91.740,260.171 91.200,259.968 91.200 C 259.766 91.200,259.600 90.750,259.600 90.200 C 259.600 89.541,259.377 89.200,258.945 89.200 C 258.387 89.200,258.320 89.571,258.493 91.722 M231.149 99.478 C 228.390 99.912,227.346 103.996,229.706 105.122 C 230.315 105.412,231.170 105.536,231.606 105.398 C 232.539 105.102,232.670 103.743,231.792 103.470 C 231.338 103.329,231.357 103.297,231.866 103.341 C 232.466 103.394,233.798 106.869,233.379 107.288 C 233.308 107.359,233.938 107.351,234.778 107.271 C 236.301 107.125,236.306 107.119,236.504 105.062 C 236.888 101.076,234.805 98.903,231.149 99.478 M265.232 102.113 C 265.214 102.505,264.795 102.989,264.300 103.188 C 263.691 103.432,263.610 103.557,264.051 103.575 C 264.874 103.607,265.741 102.590,265.469 101.913 C 265.342 101.596,265.251 101.672,265.232 102.113 M237.484 106.000 C 237.369 106.440,237.438 106.800,237.637 106.800 C 237.837 106.800,238.000 106.543,238.000 106.229 C 238.000 105.915,238.315 105.576,238.700 105.476 C 239.255 105.331,239.223 105.283,238.547 105.246 C 238.006 105.217,237.617 105.493,237.484 106.000 M266.696 112.700 C 266.591 113.525,266.661 114.371,266.852 114.580 C 267.054 114.800,267.200 114.170,267.200 113.080 C 267.200 110.819,266.959 110.638,266.696 112.700 M265.300 114.832 C 265.685 115.056,266.000 115.501,266.000 115.820 C 266.000 116.139,266.180 116.400,266.400 116.400 C 266.620 116.400,266.800 116.248,266.800 116.062 C 266.800 115.620,265.442 114.397,264.969 114.412 C 264.766 114.419,264.915 114.608,265.300 114.832 M231.939 116.300 C 231.383 116.905,230.702 117.972,230.427 118.671 C 229.903 120.002,229.050 120.583,228.264 120.143 C 227.914 119.947,227.913 120.005,228.260 120.381 C 228.897 121.072,230.300 120.545,230.635 119.489 C 231.076 118.100,232.554 116.010,233.100 116.005 C 233.375 116.002,233.600 115.820,233.600 115.600 C 233.600 114.904,232.983 115.164,231.939 116.300 M262.032 115.463 C 262.013 115.729,261.619 115.842,261.100 115.729 C 260.263 115.547,260.270 115.573,261.200 116.088 C 262.211 116.649,262.634 116.416,262.265 115.500 C 262.129 115.164,262.053 115.152,262.032 115.463 M265.899 118.616 C 265.777 119.257,265.870 119.577,266.152 119.485 C 266.708 119.302,266.998 117.600,266.474 117.600 C 266.265 117.600,266.006 118.057,265.899 118.616 M257.362 124.448 C 256.035 125.926,250.923 129.600,250.194 129.600 C 249.602 129.600,249.530 129.338,249.721 127.900 C 249.877 126.731,249.830 126.409,249.572 126.868 C 248.083 129.514,242.013 131.780,241.986 129.700 L 241.972 128.600 241.400 129.600 C 239.795 132.408,242.023 132.870,246.227 130.600 C 249.319 128.931,249.281 128.936,248.964 130.200 C 248.623 131.559,249.209 131.495,252.556 129.810 C 254.071 129.046,255.433 128.497,255.581 128.588 C 255.729 128.680,256.423 127.595,257.122 126.177 C 258.496 123.390,258.530 123.148,257.362 124.448 M265.373 131.084 C 264.783 131.675,264.242 131.779,264.576 131.238 C 264.704 131.032,264.070 130.969,263.100 131.093 C 260.849 131.380,260.678 131.600,262.706 131.600 C 264.466 131.600,264.502 131.645,264.983 134.500 C 265.122 135.325,265.084 136.000,264.898 136.000 C 264.713 136.000,264.634 136.630,264.724 137.400 C 264.898 138.892,265.152 139.088,265.920 138.320 C 266.591 137.649,266.519 137.069,265.800 137.345 C 265.435 137.485,265.200 137.345,265.200 136.987 C 265.200 136.664,265.335 136.388,265.500 136.373 C 268.942 136.063,268.699 136.324,268.426 133.233 C 268.188 130.528,266.862 129.595,265.373 131.084 M255.800 131.964 C 253.822 132.200,253.815 132.206,255.150 132.502 C 257.125 132.938,258.096 132.879,257.764 132.342 C 257.557 132.006,258.169 131.946,260.040 132.117 C 261.641 132.264,262.225 132.226,261.600 132.016 C 260.464 131.634,258.700 131.618,255.800 131.964 M245.400 133.215 C 238.146 134.242,234.799 134.878,234.552 135.277 C 234.436 135.465,235.119 135.502,236.071 135.359 C 237.022 135.215,237.980 135.076,238.200 135.049 C 238.643 134.995,238.523 138.818,238.068 139.285 C 236.290 141.108,232.005 139.795,231.995 137.424 C 231.983 134.867,231.686 134.465,230.078 134.828 C 229.277 135.008,228.544 135.077,228.447 134.980 C 227.814 134.347,227.118 137.537,227.614 138.800 C 227.657 138.910,227.672 139.270,227.648 139.600 C 227.543 141.002,228.241 141.381,229.912 140.829 C 232.332 140.030,232.877 140.421,233.926 143.704 C 235.298 147.996,236.864 150.885,238.313 151.800 C 239.011 152.240,239.799 153.178,240.066 153.885 C 240.405 154.786,240.885 155.243,241.675 155.416 C 242.294 155.552,242.800 155.827,242.800 156.027 C 242.800 156.227,243.522 156.506,244.405 156.647 C 246.278 156.947,247.086 158.509,245.840 159.420 C 245.128 159.941,245.223 163.184,246.004 165.000 C 246.273 165.625,247.167 171.810,247.770 177.207 C 247.807 177.541,247.946 177.991,248.078 178.207 C 248.210 178.423,248.447 179.810,248.605 181.289 C 248.967 184.697,249.279 184.957,251.969 184.097 L 254.087 183.420 254.865 184.410 C 255.293 184.954,255.878 185.688,256.166 186.039 C 256.453 186.391,256.811 187.331,256.960 188.128 C 257.110 188.924,257.685 190.115,258.238 190.773 C 259.444 192.205,259.028 193.600,257.396 193.600 C 256.534 193.600,256.447 193.735,256.650 194.751 C 256.788 195.442,256.691 196.020,256.406 196.196 C 256.065 196.407,255.965 196.043,256.048 194.894 C 256.119 193.909,255.914 192.935,255.512 192.349 L 254.862 191.400 255.001 192.600 C 255.173 194.083,256.152 201.168,257.212 208.600 C 259.236 222.795,259.512 225.020,259.295 225.397 C 259.167 225.619,259.423 225.485,259.863 225.100 C 260.303 224.715,261.061 224.400,261.548 224.400 C 262.566 224.400,262.577 224.816,261.180 210.400 C 260.764 206.110,260.232 200.260,259.999 197.400 C 259.765 194.540,259.492 191.480,259.393 190.600 C 259.076 187.793,258.455 181.106,258.206 177.800 C 257.567 169.332,256.693 162.181,256.265 161.913 C 256.009 161.753,254.765 161.504,253.500 161.359 C 252.235 161.215,251.200 160.967,251.200 160.808 C 251.200 160.649,250.300 159.960,249.200 159.276 C 246.423 157.550,246.631 157.334,251.300 157.095 C 259.204 156.689,267.421 152.069,269.255 147.000 C 269.533 146.230,269.881 145.600,270.028 145.600 C 270.711 145.600,271.859 138.341,271.376 137.081 C 270.903 135.848,267.609 136.734,267.603 138.097 C 267.601 138.480,267.060 139.275,266.400 139.863 C 264.929 141.173,264.802 142.400,266.136 142.400 C 268.400 142.400,268.083 144.200,265.797 144.325 C 263.217 144.467,262.593 143.941,262.233 141.320 C 261.732 137.666,261.595 137.277,260.878 137.450 C 258.712 137.974,249.750 138.694,249.420 138.372 C 249.184 138.141,249.412 138.000,250.024 138.000 C 251.432 138.000,252.269 136.575,251.238 135.931 C 250.628 135.550,250.550 135.259,250.846 134.480 L 251.216 133.505 248.508 133.777 C 244.995 134.130,244.400 134.320,244.400 135.094 C 244.400 135.445,244.294 135.627,244.163 135.497 C 243.444 134.777,244.523 133.599,245.927 133.570 C 247.950 133.528,253.765 132.487,252.000 132.483 C 251.230 132.481,248.260 132.810,245.400 133.215 M233.109 135.500 C 233.034 135.665,233.086 136.610,233.226 137.600 L 233.480 139.400 233.540 137.300 C 233.595 135.360,233.451 134.756,233.109 135.500 M246.770 135.584 C 248.052 136.270,248.961 138.144,249.395 141.000 L 249.822 143.800 251.811 144.000 C 255.238 144.345,254.437 145.292,250.200 145.904 C 246.002 146.510,245.079 146.257,244.441 144.324 C 244.090 143.260,243.643 142.865,242.201 142.347 C 240.169 141.616,239.871 141.697,241.484 142.542 C 242.166 142.900,242.583 143.460,242.610 144.055 C 242.633 144.575,242.686 145.661,242.726 146.469 C 242.821 148.352,244.549 150.557,245.533 150.048 C 247.130 149.221,264.708 147.683,266.165 148.242 C 268.384 149.093,266.428 150.000,262.371 150.000 C 258.269 150.000,247.111 151.153,246.623 151.628 C 246.188 152.051,248.003 154.110,249.700 155.119 C 251.312 156.077,251.064 156.288,248.570 156.081 C 242.207 155.553,235.186 148.914,234.160 142.455 C 233.908 140.864,233.951 140.730,234.642 140.942 C 235.059 141.070,236.116 141.010,236.992 140.809 C 238.276 140.514,238.740 140.573,239.392 141.118 C 239.987 141.616,239.954 141.516,239.270 140.739 C 238.238 139.569,238.797 138.626,239.880 139.709 C 240.285 140.113,241.032 140.263,242.142 140.163 C 243.523 140.038,243.633 140.076,242.800 140.387 L 241.800 140.761 242.794 140.681 C 243.479 140.625,243.799 140.352,243.825 139.800 C 243.947 137.222,244.074 136.726,244.800 136.000 C 245.718 135.082,245.800 135.065,246.770 135.584 M268.682 140.900 C 268.587 141.395,268.509 140.990,268.509 140.000 C 268.509 139.010,268.587 138.605,268.682 139.100 C 268.778 139.595,268.778 140.405,268.682 140.900 M235.646 142.981 C 236.648 146.610,241.320 153.747,242.150 152.916 C 242.283 152.783,241.629 151.829,240.696 150.796 C 238.184 148.012,237.739 147.324,237.193 145.374 C 236.919 144.398,236.532 143.600,236.330 143.600 C 236.129 143.600,235.994 143.375,236.030 143.100 C 236.151 142.166,236.001 141.600,235.632 141.600 C 235.411 141.600,235.417 142.151,235.646 142.981 M261.982 151.422 C 261.698 151.764,261.091 152.238,260.633 152.476 C 259.890 152.862,259.904 152.795,260.770 151.854 C 261.794 150.741,262.864 150.359,261.982 151.422 M250.598 161.905 C 250.726 162.727,251.013 164.435,251.236 165.701 C 251.459 166.967,251.986 170.747,252.408 174.101 C 252.831 177.455,253.291 180.848,253.431 181.641 C 253.616 182.691,253.533 183.140,253.121 183.298 C 252.554 183.516,252.529 183.376,249.786 164.734 C 249.505 162.828,249.152 160.877,249.000 160.400 C 248.753 159.623,248.811 159.578,249.545 159.971 C 250.058 160.245,250.453 160.970,250.598 161.905 M259.419 165.800 C 259.622 170.445,260.336 178.199,261.190 185.000 C 261.789 189.779,261.576 184.799,260.804 176.000 C 260.370 171.050,259.999 165.920,259.980 164.600 C 259.960 163.280,259.775 161.840,259.568 161.400 C 259.325 160.881,259.273 162.429,259.419 165.800 M251.882 164.100 C 251.787 164.595,251.709 164.190,251.709 163.200 C 251.709 162.210,251.787 161.805,251.882 162.300 C 251.978 162.795,251.978 163.605,251.882 164.100 M252.800 166.847 C 252.800 167.545,252.633 167.944,252.400 167.800 C 252.180 167.664,252.000 167.013,252.000 166.353 C 252.000 165.655,252.167 165.256,252.400 165.400 C 252.620 165.536,252.800 166.187,252.800 166.847 M254.479 179.712 C 254.791 180.746,254.806 181.354,254.525 181.635 C 254.120 182.040,253.441 177.343,253.019 171.200 C 252.921 169.770,253.106 170.760,253.431 173.400 C 253.756 176.040,254.227 178.880,254.479 179.712 M261.640 191.433 C 261.661 193.395,261.822 195.990,261.997 197.200 C 262.194 198.569,262.235 197.286,262.104 193.800 C 261.866 187.482,261.580 186.020,261.640 191.433 M252.259 195.108 C 251.106 197.778,250.993 201.632,252.010 203.568 C 252.193 203.916,252.547 205.811,252.798 207.781 C 253.048 209.750,253.365 211.543,253.502 211.764 C 253.639 211.986,253.704 212.922,253.648 213.845 C 253.591 214.767,253.733 215.854,253.963 216.261 C 254.193 216.667,254.548 218.497,254.752 220.328 C 255.138 223.789,255.460 224.353,257.555 225.225 C 259.161 225.893,259.251 227.373,256.593 209.400 C 254.938 198.206,253.999 192.847,253.655 192.634 C 253.513 192.546,252.885 193.659,252.259 195.108 M257.794 203.600 C 258.115 206.130,258.494 208.830,258.635 209.600 C 258.812 210.558,258.763 210.874,258.481 210.600 C 258.086 210.217,256.741 200.000,256.854 198.244 C 256.930 197.073,257.059 197.809,257.794 203.600 M263.017 209.800 C 263.126 210.900,263.330 213.645,263.469 215.900 C 263.608 218.155,263.833 220.000,263.970 220.000 C 264.298 220.000,263.670 211.446,263.192 209.400 C 262.827 207.838,262.822 207.847,263.017 209.800 M259.914 220.600 C 259.904 221.480,259.666 220.400,259.386 218.200 C 259.105 216.000,258.883 213.570,258.892 212.800 C 258.901 212.030,259.139 213.110,259.420 215.200 C 259.701 217.290,259.923 219.720,259.914 220.600 M264.032 221.867 C 264.014 222.784,263.891 223.819,263.757 224.167 C 263.603 224.569,263.731 224.800,264.108 224.800 C 264.575 224.800,264.663 224.396,264.518 222.900 C 264.265 220.291,264.069 219.875,264.032 221.867 M260.800 223.424 C 260.800 223.741,260.620 224.000,260.400 224.000 C 260.180 224.000,260.000 223.629,260.000 223.176 C 260.000 222.723,260.180 222.464,260.400 222.600 C 260.620 222.736,260.800 223.107,260.800 223.424 " stroke="none" fill="#ca6e0f" fill-rule="evenodd"></path><path id="path1" d="M262.734 97.869 C 261.989 98.067,261.394 99.200,262.036 99.200 C 262.262 99.200,262.344 99.368,262.217 99.572 C 262.091 99.777,262.177 100.062,262.410 100.206 C 262.642 100.350,262.723 100.812,262.589 101.234 C 262.447 101.681,262.535 102.000,262.800 102.000 C 263.223 102.000,263.140 102.605,262.477 104.366 C 262.323 104.774,262.422 104.831,262.832 104.572 C 263.144 104.374,263.535 104.187,263.700 104.156 C 263.865 104.125,264.135 104.075,264.300 104.044 C 264.465 104.013,264.330 103.813,264.000 103.600 C 263.483 103.266,263.493 103.211,264.076 103.206 C 265.025 103.198,265.336 102.527,265.263 100.650 C 265.147 97.705,264.799 97.322,262.734 97.869 M244.932 105.100 C 244.326 106.145,243.683 107.062,243.504 107.137 C 243.325 107.212,242.838 107.932,242.421 108.737 C 240.891 111.691,235.005 116.738,234.121 115.855 C 234.011 115.744,234.831 115.192,235.945 114.628 C 238.906 113.127,243.553 107.464,242.236 106.959 C 241.485 106.670,240.708 107.125,240.911 107.733 C 241.087 108.260,240.265 109.200,239.629 109.200 C 239.226 109.200,239.000 107.879,239.132 106.300 C 239.164 105.915,238.923 105.600,238.595 105.600 C 238.268 105.600,238.000 105.870,238.000 106.200 C 238.000 106.530,237.865 106.801,237.700 106.803 C 237.262 106.806,235.842 109.314,235.946 109.900 C 235.995 110.175,235.831 110.400,235.582 110.400 C 235.332 110.400,234.771 110.805,234.334 111.300 C 233.897 111.795,233.671 111.947,233.831 111.638 C 234.024 111.269,233.966 111.174,233.662 111.362 C 233.408 111.519,233.200 111.829,233.200 112.052 C 233.200 112.660,232.136 113.603,231.814 113.281 C 231.660 113.126,231.587 113.180,231.652 113.400 C 231.717 113.620,231.543 114.209,231.266 114.708 C 230.990 115.208,230.872 115.793,231.005 116.008 C 231.138 116.224,230.967 116.400,230.624 116.400 C 230.281 116.400,230.000 116.580,230.000 116.800 C 230.000 117.020,229.730 117.200,229.400 117.200 C 229.051 117.200,228.800 117.563,228.800 118.069 C 228.800 118.546,228.531 119.234,228.202 119.598 C 226.066 121.958,227.695 126.913,232.038 131.270 C 234.541 133.781,234.691 134.400,232.795 134.400 L 231.638 134.400 231.874 136.500 C 232.261 139.935,232.479 140.148,235.325 139.850 C 236.667 139.710,237.896 139.461,238.055 139.298 C 238.520 138.822,238.650 134.994,238.200 135.049 C 237.980 135.076,236.990 135.220,236.000 135.370 C 233.352 135.769,234.532 135.002,237.400 134.460 C 240.774 133.822,247.390 132.937,255.800 132.000 C 264.520 131.029,265.200 130.895,265.200 130.156 C 265.200 129.836,265.463 129.474,265.785 129.350 C 266.106 129.227,266.468 128.814,266.589 128.434 C 266.710 128.053,267.204 127.317,267.686 126.799 C 268.964 125.428,269.060 119.321,267.800 119.537 C 267.360 119.612,266.942 119.832,266.871 120.025 C 266.799 120.218,266.516 120.166,266.241 119.909 C 265.719 119.422,265.856 117.600,266.415 117.600 C 266.914 117.600,267.328 115.168,266.901 114.741 C 266.692 114.532,266.605 113.493,266.706 112.433 C 266.824 111.211,266.721 110.398,266.426 110.216 C 266.079 110.002,266.076 109.790,266.414 109.384 C 266.685 109.056,266.742 108.471,266.557 107.919 C 266.387 107.414,266.237 106.733,266.224 106.407 C 266.211 106.080,265.926 105.760,265.592 105.695 C 264.931 105.566,263.817 107.715,263.927 108.906 C 263.978 109.456,263.727 109.592,262.796 109.521 C 262.135 109.471,261.600 109.200,261.600 108.915 C 261.600 108.632,261.425 108.400,261.210 108.400 C 260.995 108.400,260.922 107.892,261.046 107.272 L 261.271 106.144 258.736 106.320 C 257.341 106.417,256.195 106.519,256.189 106.548 C 256.183 106.577,256.273 108.533,256.389 110.895 C 256.541 113.989,256.460 115.380,256.100 115.871 C 255.690 116.430,255.600 115.644,255.600 111.525 C 255.600 107.053,255.008 103.600,254.241 103.600 C 254.101 103.600,253.237 107.261,252.447 111.200 L 252.086 113.000 251.963 111.400 C 251.895 110.520,251.823 109.260,251.802 108.600 C 251.714 105.867,250.455 104.632,250.000 106.833 C 249.618 108.678,248.957 109.429,248.239 108.832 C 247.674 108.364,247.605 108.459,247.646 109.651 C 247.672 110.393,247.775 110.685,247.876 110.300 C 247.976 109.915,248.242 109.600,248.466 109.600 C 249.012 109.600,247.538 112.087,246.857 112.314 C 246.436 112.455,246.416 112.318,246.761 111.673 C 247.226 110.803,247.354 105.616,246.948 104.100 C 246.592 102.771,246.158 102.986,244.932 105.100 M233.387 107.576 C 233.439 107.919,233.211 108.614,232.881 109.121 C 232.100 110.319,232.812 111.245,233.774 110.283 C 234.118 109.939,234.400 109.541,234.400 109.400 C 234.400 109.259,234.670 108.873,235.000 108.543 C 235.879 107.664,235.741 107.312,234.447 107.122 C 233.570 106.993,233.316 107.102,233.387 107.576 M266.069 115.062 C 266.872 115.789,267.023 116.400,266.400 116.400 C 266.180 116.400,266.000 116.139,266.000 115.820 C 266.000 115.501,265.685 115.056,265.300 114.832 C 264.915 114.608,264.766 114.419,264.969 114.412 C 265.171 114.405,265.666 114.698,266.069 115.062 M233.600 115.600 C 233.600 115.820,233.375 116.002,233.100 116.005 C 232.554 116.010,231.076 118.100,230.635 119.489 C 230.300 120.545,228.897 121.072,228.260 120.381 C 227.913 120.005,227.914 119.947,228.264 120.143 C 229.050 120.583,229.903 120.002,230.427 118.671 C 231.224 116.648,233.600 114.347,233.600 115.600 M262.333 116.322 C 262.260 116.498,261.750 116.394,261.200 116.088 C 260.270 115.573,260.263 115.547,261.100 115.729 C 261.619 115.842,262.013 115.729,262.032 115.463 C 262.053 115.152,262.129 115.164,262.265 115.500 C 262.376 115.775,262.407 116.145,262.333 116.322 M257.122 126.177 C 256.423 127.595,255.729 128.680,255.581 128.588 C 255.433 128.497,254.071 129.046,252.556 129.810 C 249.209 131.495,248.623 131.559,248.964 130.200 C 249.281 128.936,249.319 128.931,246.227 130.600 C 242.023 132.870,239.795 132.408,241.400 129.600 L 241.972 128.600 241.986 129.700 C 242.013 131.780,248.083 129.514,249.572 126.868 C 249.830 126.409,249.877 126.731,249.721 127.900 C 249.530 129.338,249.602 129.600,250.194 129.600 C 250.923 129.600,256.035 125.926,257.362 124.448 C 258.530 123.148,258.496 123.390,257.122 126.177 M233.540 137.300 L 233.480 139.400 233.226 137.600 C 232.983 135.880,233.039 135.200,233.424 135.200 C 233.521 135.200,233.573 136.145,233.540 137.300 M241.700 140.276 C 242.085 140.376,242.715 140.376,243.100 140.276 C 243.485 140.175,243.170 140.093,242.400 140.093 C 241.630 140.093,241.315 140.175,241.700 140.276 M236.800 140.823 C 236.030 141.011,235.059 141.062,234.642 140.937 C 233.951 140.729,233.908 140.865,234.160 142.455 C 235.186 148.914,242.207 155.553,248.570 156.081 C 251.084 156.289,251.315 156.077,249.645 155.090 C 249.009 154.715,247.919 153.758,247.221 152.963 C 246.383 152.008,245.707 151.583,245.227 151.709 C 244.678 151.852,244.549 151.718,244.695 151.159 C 244.808 150.725,244.457 149.908,243.844 149.179 C 243.191 148.403,242.772 147.389,242.726 146.469 C 242.686 145.661,242.632 144.607,242.607 144.128 C 242.572 143.448,238.684 140.151,238.260 140.441 C 238.227 140.463,237.570 140.635,236.800 140.823 M236.047 142.100 C 236.073 142.375,236.066 142.825,236.030 143.100 C 235.994 143.375,236.129 143.600,236.330 143.600 C 236.532 143.600,236.919 144.398,237.193 145.374 C 237.739 147.324,238.184 148.012,240.696 150.796 C 241.629 151.829,242.283 152.783,242.150 152.916 C 241.726 153.341,237.985 148.677,236.988 146.481 C 235.752 143.756,235.153 141.600,235.632 141.600 C 235.835 141.600,236.021 141.825,236.047 142.100 M249.000 160.400 C 249.152 160.877,249.505 162.828,249.786 164.734 C 252.529 183.376,252.554 183.516,253.121 183.298 C 253.533 183.140,253.616 182.691,253.431 181.641 C 253.291 180.848,252.831 177.455,252.408 174.101 C 251.986 170.747,251.459 166.967,251.236 165.701 C 251.013 164.435,250.726 162.727,250.598 161.905 C 250.453 160.970,250.058 160.245,249.545 159.971 C 248.811 159.578,248.753 159.623,249.000 160.400 M253.890 191.176 C 253.766 191.653,254.009 193.789,254.431 195.922 C 255.114 199.370,257.101 212.348,258.443 222.117 C 258.709 224.051,259.064 225.491,259.232 225.317 C 259.401 225.143,259.195 222.570,258.774 219.600 C 258.354 216.630,257.651 211.680,257.212 208.600 C 256.371 202.707,255.235 194.545,255.002 192.721 C 254.775 190.952,254.169 190.110,253.890 191.176 " stroke="none" fill="#f6ce31" fill-rule="evenodd"></path><path id="path2" d="M262.229 135.069 C 262.087 135.438,262.095 136.558,262.245 137.560 C 262.395 138.561,262.548 139.655,262.584 139.990 C 262.974 143.584,263.455 144.203,265.526 143.774 C 266.592 143.553,266.779 143.420,266.200 143.291 C 264.133 142.833,263.827 141.285,265.500 139.757 C 266.511 138.833,266.523 138.789,265.649 139.217 C 264.619 139.721,264.018 139.258,264.006 137.949 C 263.990 136.190,262.639 134.001,262.229 135.069 M245.219 136.577 C 244.956 136.894,244.617 138.019,244.466 139.077 C 244.207 140.893,244.114 141.013,242.796 141.232 C 241.629 141.425,241.531 141.512,242.200 141.764 C 242.640 141.930,243.388 142.219,243.863 142.407 C 244.363 142.605,244.836 143.252,244.988 143.947 C 245.404 145.838,246.147 146.234,248.237 145.675 C 249.213 145.414,250.504 145.174,251.106 145.143 C 251.906 145.102,251.770 145.021,250.600 144.843 C 249.026 144.604,248.998 144.570,248.899 142.800 C 248.630 138.043,246.705 134.787,245.219 136.577 M282.438 138.836 C 281.023 139.401,278.906 141.806,278.601 143.193 C 278.357 144.307,277.600 144.917,277.600 144.000 C 277.600 143.780,277.060 143.600,276.400 143.600 C 275.071 143.600,274.595 146.110,275.705 147.271 C 277.387 149.033,277.658 154.800,276.059 154.800 C 275.877 154.800,275.522 155.254,275.269 155.808 C 275.017 156.362,274.358 156.988,273.805 157.198 C 273.252 157.408,272.800 157.752,272.800 157.962 C 272.800 158.698,268.358 159.328,266.380 158.871 C 264.624 158.466,261.200 156.558,261.200 155.984 C 261.200 155.834,260.751 155.797,260.203 155.901 L 259.206 156.092 260.203 157.277 C 260.751 157.928,261.200 158.718,261.200 159.031 C 261.200 159.344,261.470 159.600,261.800 159.600 C 262.130 159.600,262.400 159.763,262.400 159.962 C 262.400 161.398,271.174 162.143,274.557 160.994 C 276.599 160.301,280.347 156.872,281.221 154.898 C 281.550 154.154,282.290 153.412,282.993 153.121 C 287.019 151.458,289.912 145.720,289.047 141.111 C 288.635 138.915,285.198 137.732,282.438 138.836 M257.400 149.075 C 252.253 149.413,247.258 150.010,246.374 150.393 C 245.317 150.852,245.597 150.837,255.000 149.948 C 257.640 149.698,261.330 149.366,263.200 149.210 L 266.600 148.927 263.000 148.935 C 261.020 148.940,258.500 149.003,257.400 149.075 M165.600 155.300 C 163.950 155.517,162.507 155.840,162.394 156.019 C 162.215 156.301,153.452 157.025,146.800 157.307 L 144.600 157.400 144.627 161.200 C 144.642 163.290,144.804 169.332,144.989 174.626 C 145.173 179.920,145.208 184.712,145.067 185.274 L 144.811 186.297 142.938 185.348 C 141.907 184.827,140.735 184.400,140.332 184.400 C 139.929 184.400,139.600 184.241,139.600 184.047 C 139.600 182.579,125.851 182.479,124.809 183.940 C 124.694 184.102,123.826 184.483,122.880 184.788 C 121.933 185.092,120.781 185.670,120.318 186.071 C 119.856 186.472,119.318 186.800,119.123 186.800 C 118.464 186.800,113.670 192.045,112.973 193.529 C 112.593 194.338,112.157 195.090,112.004 195.200 C 111.852 195.310,111.397 196.300,110.994 197.400 C 110.592 198.500,110.102 199.612,109.905 199.872 C 107.871 202.562,107.931 223.602,109.986 228.199 C 110.379 229.079,110.940 230.475,111.231 231.300 C 111.522 232.125,111.870 232.800,112.003 232.800 C 112.137 232.800,112.557 233.505,112.938 234.367 C 113.633 235.944,118.863 241.600,119.625 241.600 C 119.850 241.600,120.401 241.943,120.851 242.362 C 121.301 242.781,122.284 243.239,123.035 243.380 C 123.786 243.521,124.400 243.793,124.400 243.985 C 124.400 244.611,128.352 245.200,132.553 245.200 C 136.614 245.200,141.200 244.563,141.200 244.000 C 141.200 243.840,142.190 243.398,143.400 243.018 C 144.610 242.637,145.600 242.183,145.600 242.009 C 145.600 240.811,147.174 241.425,147.486 242.745 L 147.830 244.200 160.467 244.306 C 172.875 244.409,173.108 244.396,173.316 243.599 C 173.433 243.152,173.372 239.415,173.180 235.293 C 172.467 219.990,173.110 165.998,174.025 164.305 C 174.711 163.036,174.496 155.323,173.767 155.043 C 172.901 154.711,169.213 154.827,165.600 155.300 M50.667 156.667 C 50.520 156.813,50.400 157.263,50.400 157.667 C 50.400 158.070,50.239 158.400,50.043 158.400 C 49.847 158.400,49.369 159.705,48.982 161.300 C 48.595 162.895,48.161 164.290,48.019 164.400 C 47.876 164.510,47.417 165.995,47.000 167.700 C 46.582 169.405,46.126 170.800,45.987 170.800 C 45.848 170.800,45.393 172.195,44.977 173.900 C 44.561 175.605,44.111 177.090,43.977 177.200 C 43.843 177.310,43.399 178.705,42.990 180.300 C 42.580 181.895,42.127 183.200,41.981 183.200 C 41.835 183.200,41.405 184.640,41.024 186.400 C 40.644 188.160,40.197 189.600,40.030 189.600 C 39.864 189.600,39.499 190.635,39.220 191.900 C 38.941 193.165,38.398 194.920,38.013 195.800 C 37.629 196.680,37.084 198.525,36.803 199.900 C 36.521 201.275,36.151 202.400,35.979 202.400 C 35.808 202.400,35.345 203.795,34.951 205.500 C 34.556 207.205,34.119 208.690,33.980 208.800 C 33.841 208.910,33.395 210.260,32.988 211.800 C 32.582 213.340,32.144 214.690,32.014 214.800 C 31.885 214.910,31.439 216.395,31.023 218.100 C 30.607 219.805,30.140 221.200,29.985 221.200 C 29.831 221.200,29.487 222.325,29.221 223.700 C 28.955 225.075,28.474 226.738,28.152 227.395 C 27.830 228.053,27.281 229.853,26.932 231.395 C 26.583 232.938,26.183 234.290,26.043 234.400 C 25.552 234.785,24.400 239.948,24.400 241.766 L 24.400 243.600 39.386 243.600 C 56.039 243.600,54.781 243.815,55.338 240.877 C 55.476 240.149,55.846 239.297,56.159 238.984 C 56.472 238.671,56.800 238.199,56.888 237.936 C 57.232 236.903,72.140 236.300,73.120 237.280 C 73.384 237.544,73.600 238.815,73.600 240.109 C 73.600 241.611,73.806 242.663,74.171 243.029 C 75.061 243.919,106.719 243.878,107.061 242.986 C 107.304 242.351,106.465 238.753,105.991 238.400 C 105.843 238.290,105.400 236.850,105.006 235.200 C 104.613 233.550,104.137 232.003,103.948 231.763 C 103.760 231.522,103.308 229.992,102.943 228.363 C 102.579 226.733,102.162 225.310,102.017 225.200 C 101.872 225.090,101.420 223.515,101.012 221.700 C 100.603 219.885,100.153 218.400,100.011 218.400 C 99.869 218.400,99.424 216.780,99.022 214.800 C 98.620 212.820,98.176 211.200,98.036 211.200 C 97.895 211.200,97.445 209.670,97.035 207.800 C 96.625 205.930,96.158 204.400,95.997 204.400 C 95.836 204.400,95.484 203.275,95.214 201.900 C 94.945 200.525,94.401 198.680,94.005 197.800 C 93.609 196.920,93.074 195.165,92.814 193.900 C 92.555 192.635,92.203 191.600,92.031 191.600 C 91.859 191.600,91.402 190.430,91.015 189.000 C 90.628 187.570,90.189 186.400,90.039 186.400 C 89.889 186.400,89.422 185.140,89.000 183.600 C 88.578 182.060,88.111 180.800,87.961 180.800 C 87.811 180.800,87.372 179.630,86.985 178.200 C 86.598 176.770,86.152 175.600,85.993 175.600 C 85.835 175.600,85.402 174.520,85.032 173.200 C 84.662 171.880,84.224 170.800,84.059 170.800 C 83.894 170.800,83.424 169.630,83.015 168.200 C 82.606 166.770,82.144 165.600,81.989 165.600 C 81.833 165.600,81.402 164.520,81.032 163.200 C 80.662 161.880,80.227 160.800,80.067 160.800 C 79.906 160.800,79.534 159.985,79.240 158.989 C 78.460 156.346,78.047 156.233,71.246 156.807 C 66.798 157.182,64.415 157.192,61.284 156.850 C 56.723 156.351,51.079 156.254,50.667 156.667 M243.825 157.287 C 243.146 157.669,241.476 159.305,239.827 161.200 C 239.540 161.530,239.058 162.520,238.755 163.400 C 238.452 164.280,238.023 165.128,237.802 165.285 C 237.266 165.666,237.265 177.133,237.802 177.515 C 238.023 177.672,238.547 178.835,238.967 180.100 C 239.386 181.365,239.850 182.400,239.997 182.400 C 240.144 182.400,240.518 182.895,240.827 183.500 C 241.135 184.105,242.345 185.538,243.514 186.684 C 245.564 188.695,245.810 190.800,243.993 190.800 C 242.986 190.800,242.432 195.758,243.263 197.326 C 245.311 201.186,251.200 200.937,251.200 196.991 C 251.200 196.314,251.386 195.574,251.612 195.348 C 251.839 195.121,252.348 193.790,252.742 192.391 C 253.567 189.467,254.067 189.095,255.047 190.675 C 255.950 192.132,256.777 192.800,257.676 192.800 C 258.672 192.800,258.583 192.133,257.400 190.727 C 256.850 190.073,256.400 189.087,256.400 188.535 C 256.400 187.573,254.175 184.000,253.576 184.000 C 253.417 184.000,252.503 184.352,251.544 184.782 L 249.800 185.564 248.953 184.582 C 248.488 184.042,247.934 183.600,247.723 183.600 C 247.105 183.600,242.856 179.207,242.561 178.263 C 242.413 177.788,242.123 177.291,241.917 177.159 C 241.277 176.746,240.819 173.948,240.812 170.400 C 240.801 165.439,241.344 163.873,243.957 161.333 C 245.659 159.678,246.481 157.600,245.433 157.600 C 245.122 157.600,244.807 157.431,244.733 157.225 C 244.654 157.003,244.284 157.028,243.825 157.287 M293.200 181.297 C 291.770 181.514,290.510 181.807,290.400 181.948 C 290.290 182.088,289.165 182.547,287.900 182.967 C 286.635 183.386,285.600 183.863,285.600 184.026 C 285.600 184.189,285.094 184.498,284.476 184.714 C 283.857 184.929,283.092 185.352,282.775 185.653 C 282.458 185.954,281.344 186.887,280.299 187.727 C 279.255 188.567,278.400 189.393,278.400 189.563 C 278.400 189.733,277.590 190.730,276.600 191.778 C 275.610 192.826,274.800 193.907,274.800 194.181 C 274.800 194.454,274.435 195.098,273.989 195.613 C 273.543 196.127,273.072 197.009,272.942 197.574 C 272.811 198.138,272.455 199.001,272.149 199.492 C 271.457 200.601,270.400 205.517,270.400 207.626 C 270.400 208.492,270.220 209.200,270.000 209.200 C 269.763 209.200,269.600 210.659,269.600 212.776 C 269.600 214.743,269.780 216.464,270.000 216.600 C 270.220 216.736,270.400 217.476,270.400 218.245 C 270.400 219.881,271.572 225.309,271.988 225.600 C 272.145 225.710,272.596 226.655,272.991 227.700 C 273.386 228.745,273.820 229.600,273.957 229.600 C 274.093 229.600,274.457 230.185,274.765 230.900 C 275.334 232.221,275.786 232.825,277.633 234.733 C 278.202 235.320,278.883 236.205,279.148 236.700 C 279.412 237.195,279.796 237.600,280.001 237.600 C 280.206 237.600,280.965 238.192,281.688 238.914 C 283.420 240.646,287.466 243.118,289.100 243.442 C 289.815 243.584,290.400 243.843,290.400 244.017 C 290.400 244.626,294.476 245.200,298.803 245.200 C 303.523 245.200,309.200 244.518,309.200 243.951 C 309.200 243.758,309.539 243.600,309.954 243.600 C 311.643 243.600,314.726 242.286,315.225 241.353 C 315.506 240.829,315.885 240.400,316.068 240.400 C 316.250 240.400,316.400 240.040,316.400 239.600 C 316.400 239.160,316.220 238.800,316.000 238.800 C 315.780 238.800,315.600 237.955,315.600 236.923 C 315.600 234.526,314.382 225.464,314.024 225.200 C 313.875 225.090,313.526 223.741,313.248 222.201 C 312.569 218.435,311.763 216.800,310.585 216.800 C 309.139 216.800,305.600 217.701,305.600 218.069 C 305.600 218.251,304.970 218.400,304.200 218.400 C 303.430 218.400,302.800 218.220,302.800 218.000 C 302.800 217.780,302.560 217.600,302.266 217.600 C 300.414 217.600,298.696 212.658,300.000 211.083 C 300.220 210.817,300.744 210.150,301.164 209.600 C 301.884 208.657,302.179 208.592,306.358 208.465 L 310.789 208.330 311.275 206.665 C 311.542 205.749,311.872 204.910,312.007 204.800 C 312.143 204.690,312.585 202.980,312.991 201.000 C 313.397 199.020,313.849 197.310,313.996 197.200 C 314.143 197.090,314.604 195.065,315.019 192.700 C 315.435 190.335,315.915 188.400,316.087 188.400 C 316.259 188.400,316.400 187.718,316.400 186.885 C 316.400 185.197,313.794 183.196,310.800 182.585 C 310.030 182.428,309.310 182.161,309.200 181.991 C 308.573 181.025,298.008 180.567,293.200 181.297 M341.000 181.304 C 339.900 181.529,338.910 181.835,338.800 181.984 C 338.690 182.133,337.791 182.574,336.801 182.964 C 335.812 183.354,334.912 183.791,334.801 183.936 C 334.691 184.081,333.990 184.540,333.245 184.955 C 330.585 186.438,326.398 190.641,324.908 193.326 C 324.518 194.026,324.090 194.690,323.956 194.800 C 323.562 195.122,322.400 197.519,322.400 198.009 C 322.400 198.255,322.158 198.699,321.862 198.995 C 321.566 199.292,321.085 200.674,320.794 202.067 C 320.503 203.460,320.070 204.728,319.833 204.885 C 319.172 205.321,319.237 222.879,319.900 223.100 C 320.175 223.192,320.402 223.657,320.405 224.133 C 320.412 225.398,321.501 229.290,321.924 229.565 C 322.124 229.694,322.537 230.498,322.842 231.350 C 323.147 232.203,323.623 232.987,323.899 233.093 C 324.174 233.199,324.400 233.524,324.400 233.815 C 324.400 234.837,331.162 241.176,332.271 241.193 C 332.531 241.197,332.995 241.453,333.304 241.761 C 333.898 242.355,337.223 243.600,338.214 243.600 C 338.536 243.600,338.800 243.749,338.800 243.931 C 338.800 245.519,362.158 245.555,362.733 243.968 C 362.807 243.766,363.161 243.600,363.520 243.600 C 364.442 243.600,367.600 242.353,367.600 241.989 C 367.600 241.823,368.035 241.578,368.567 241.444 C 371.537 240.699,373.567 237.007,372.000 235.200 C 371.560 234.693,371.195 234.080,371.189 233.839 C 371.183 233.597,370.643 232.693,369.989 231.829 C 369.335 230.965,368.800 230.032,368.800 229.757 C 368.800 229.482,368.560 229.017,368.267 228.725 C 367.975 228.432,367.416 227.180,367.027 225.942 C 365.994 222.658,363.771 221.981,360.164 223.852 C 355.736 226.150,349.107 226.017,346.374 223.577 L 345.056 222.400 346.928 222.400 C 347.958 222.400,348.800 222.255,348.800 222.077 C 348.800 221.899,352.265 221.428,356.500 221.030 C 360.735 220.631,364.380 220.170,364.600 220.004 C 364.820 219.838,366.296 219.579,367.880 219.429 C 373.404 218.904,374.452 218.196,375.231 214.463 C 375.958 210.974,375.034 200.400,374.002 200.400 C 373.820 200.400,373.549 199.682,373.401 198.805 C 373.253 197.928,372.740 196.623,372.262 195.905 C 371.784 195.187,371.173 194.105,370.905 193.500 C 370.637 192.895,370.233 192.400,370.009 192.400 C 369.784 192.400,369.600 192.142,369.600 191.827 C 369.600 191.076,363.532 184.959,362.443 184.614 C 361.979 184.467,361.600 184.196,361.600 184.013 C 361.600 183.830,360.700 183.357,359.600 182.961 C 358.500 182.566,357.600 182.112,357.600 181.954 C 357.600 180.898,345.332 180.418,341.000 181.304 M178.633 183.501 C 178.505 183.629,178.400 185.043,178.400 186.643 C 178.400 188.243,178.220 189.664,178.000 189.800 C 177.755 189.951,177.600 193.130,177.600 198.000 C 177.600 202.870,177.755 206.049,178.000 206.200 C 178.220 206.336,178.400 207.214,178.400 208.150 C 178.400 210.929,179.200 214.433,180.439 217.083 C 181.077 218.449,181.600 219.739,181.600 219.950 C 181.600 220.161,181.737 220.393,181.904 220.467 C 182.071 220.540,182.997 222.175,183.962 224.100 C 184.926 226.025,185.841 227.600,185.994 227.600 C 186.147 227.600,186.512 228.329,186.806 229.220 C 187.100 230.110,187.539 230.965,187.782 231.120 C 188.024 231.274,188.560 232.165,188.972 233.100 C 189.384 234.035,189.862 234.800,190.034 234.800 C 190.206 234.800,190.448 235.120,190.572 235.512 C 191.001 236.864,193.459 240.432,195.482 242.638 L 196.364 243.600 208.734 243.600 L 221.104 243.600 222.652 242.064 C 224.187 240.540,224.949 239.555,225.482 238.400 C 225.635 238.070,226.084 237.451,226.480 237.025 C 226.876 236.598,227.200 236.112,227.200 235.945 C 227.200 235.777,227.740 234.840,228.400 233.862 C 229.060 232.884,229.600 231.885,229.600 231.642 C 229.600 231.399,229.756 231.200,229.946 231.200 C 230.136 231.200,230.601 230.390,230.979 229.400 C 231.357 228.410,231.807 227.600,231.979 227.600 C 232.151 227.600,232.614 226.745,233.009 225.700 C 233.404 224.655,233.860 223.710,234.022 223.600 C 234.512 223.269,236.419 219.524,237.078 217.600 C 237.417 216.610,237.888 215.678,238.124 215.529 C 239.493 214.665,239.420 185.340,238.047 184.882 C 237.801 184.800,237.600 184.404,237.600 184.002 C 237.600 183.294,214.707 182.806,212.300 183.463 C 211.496 183.682,211.204 192.800,212.000 192.800 C 212.247 192.800,212.400 194.867,212.400 198.200 C 212.400 201.533,212.247 203.600,212.000 203.600 C 211.780 203.600,211.600 204.440,211.600 205.467 C 211.600 208.754,210.792 212.284,209.768 213.477 L 208.812 214.589 207.977 213.755 C 207.034 212.811,206.424 210.611,206.410 208.100 C 206.404 207.165,206.220 206.400,206.000 206.400 C 205.753 206.400,205.600 204.333,205.600 201.000 C 205.600 197.667,205.753 195.600,206.000 195.600 C 206.803 195.600,206.508 183.683,205.700 183.467 C 204.678 183.194,178.907 183.226,178.633 183.501 M66.646 197.500 C 67.201 198.105,67.919 198.890,68.240 199.245 C 69.052 200.141,69.418 203.712,68.839 205.087 C 66.567 210.483,59.684 207.231,61.229 201.492 C 61.635 199.984,62.047 199.365,63.958 197.390 C 65.167 196.141,65.408 196.151,66.646 197.500 M351.339 203.602 C 353.436 205.956,353.082 206.492,349.041 207.081 C 345.116 207.654,344.389 207.439,344.702 205.800 C 345.295 202.699,349.341 201.359,351.339 203.602 M143.648 210.443 C 146.341 213.434,144.212 218.808,140.340 218.794 C 138.315 218.787,138.114 218.675,136.679 216.762 C 134.855 214.332,135.167 212.211,137.746 209.493 C 138.974 208.200,142.078 208.699,143.648 210.443 M254.600 227.201 C 254.447 228.521,254.181 229.688,254.010 229.794 C 253.838 229.900,253.373 232.060,252.975 234.593 C 252.578 237.127,252.132 239.200,251.985 239.200 C 251.838 239.200,251.387 241.360,250.984 244.000 C 250.580 246.640,250.103 248.800,249.925 248.800 C 249.746 248.800,249.600 249.340,249.600 250.000 L 249.600 251.200 261.252 251.200 L 272.903 251.200 272.627 249.100 C 272.475 247.945,272.182 246.940,271.975 246.867 C 271.769 246.793,271.600 246.508,271.600 246.233 C 271.600 244.354,268.057 242.800,263.774 242.800 C 261.817 242.800,260.400 242.634,260.400 242.404 C 260.400 240.856,261.715 230.441,261.992 229.800 C 262.181 229.360,262.441 228.121,262.568 227.047 L 262.799 225.095 261.142 225.317 C 259.180 225.580,258.917 225.926,258.571 228.697 C 258.426 229.853,258.149 230.800,257.954 230.800 C 257.465 230.800,257.506 228.505,258.000 228.200 C 258.905 227.641,258.453 225.600,257.424 225.600 C 256.887 225.600,256.336 225.420,256.200 225.200 C 255.520 224.100,254.865 224.919,254.600 227.201 " stroke="none" fill="#040404" fill-rule="evenodd"></path><path id="path3" d="M269.792 130.282 L 268.185 130.437 268.426 133.118 C 268.716 136.334,268.961 136.062,265.500 136.373 C 265.335 136.388,265.200 136.643,265.200 136.940 C 265.200 137.538,268.246 137.426,269.000 136.800 C 269.226 136.612,270.184 136.382,271.128 136.287 C 273.502 136.050,273.684 135.756,273.316 132.764 C 272.969 129.946,273.005 129.971,269.792 130.282 M264.800 131.000 C 264.500 131.362,263.566 131.616,262.451 131.640 C 260.898 131.673,260.761 131.734,261.600 132.016 C 262.225 132.226,261.641 132.264,260.040 132.117 C 258.004 131.931,257.546 131.989,257.801 132.401 C 258.054 132.810,257.709 132.865,256.160 132.661 C 255.021 132.511,252.693 132.650,250.600 132.994 C 248.620 133.320,246.427 133.589,245.727 133.593 C 244.511 133.600,243.499 134.832,244.163 135.497 C 244.294 135.627,244.400 135.445,244.400 135.094 C 244.400 134.320,244.995 134.130,248.508 133.777 L 251.216 133.505 250.846 134.480 C 250.550 135.259,250.628 135.550,251.238 135.931 C 251.878 136.331,251.923 136.534,251.516 137.186 C 250.909 138.157,249.161 138.398,248.512 137.600 C 248.127 137.127,248.126 137.277,248.503 138.310 C 248.775 139.052,249.073 139.399,249.191 139.110 C 249.315 138.808,250.312 138.545,251.638 138.466 C 252.869 138.392,255.567 138.122,257.633 137.866 L 261.389 137.400 261.635 135.880 C 262.139 132.759,263.652 133.475,264.232 137.109 C 264.382 138.049,264.636 138.899,264.797 138.998 C 264.957 139.097,264.959 138.470,264.801 137.604 C 264.642 136.738,264.670 135.977,264.863 135.912 C 265.061 135.846,265.052 134.936,264.842 133.814 C 264.512 132.048,264.562 131.754,265.297 131.116 C 265.751 130.722,265.937 130.400,265.710 130.400 C 265.483 130.400,265.074 130.670,264.800 131.000 M266.041 139.758 C 265.202 140.624,264.794 141.384,264.916 141.858 C 265.078 142.487,265.114 142.467,265.154 141.729 C 265.179 141.250,265.613 140.530,266.119 140.129 C 266.986 139.441,267.819 138.400,267.502 138.400 C 267.422 138.400,266.765 139.011,266.041 139.758 M268.509 140.000 C 268.509 140.990,268.587 141.395,268.682 140.900 C 268.778 140.405,268.778 139.595,268.682 139.100 C 268.587 138.605,268.509 139.010,268.509 140.000 M230.000 140.800 C 229.477 141.138,229.483 141.189,230.046 141.194 C 230.504 141.198,230.761 141.711,230.933 142.963 C 231.284 145.523,233.807 149.853,236.489 152.500 C 238.397 154.383,240.400 155.468,240.400 154.619 C 240.400 153.896,239.332 152.468,238.291 151.800 C 236.901 150.907,235.357 148.074,233.933 143.800 C 232.785 140.354,231.824 139.621,230.000 140.800 M263.500 148.282 C 263.995 148.378,264.805 148.378,265.300 148.282 C 265.795 148.187,265.390 148.109,264.400 148.109 C 263.410 148.109,263.005 148.187,263.500 148.282 M260.770 151.854 C 259.904 152.795,259.890 152.862,260.633 152.476 C 261.628 151.960,262.656 150.800,262.119 150.800 C 261.910 150.800,261.303 151.274,260.770 151.854 M256.400 156.414 C 254.902 156.836,252.402 157.158,250.500 157.173 C 246.628 157.205,246.417 157.546,249.200 159.276 C 250.300 159.960,251.200 160.649,251.200 160.808 C 251.200 160.967,252.235 161.215,253.500 161.359 C 254.765 161.504,256.009 161.753,256.265 161.913 C 256.693 162.181,257.567 169.332,258.206 177.800 C 258.455 181.106,259.076 187.793,259.393 190.600 C 259.492 191.480,259.765 194.540,259.999 197.400 C 260.232 200.260,260.764 206.110,261.180 210.400 C 261.596 214.690,262.048 219.595,262.185 221.300 L 262.433 224.400 261.350 224.400 C 259.877 224.400,260.272 224.673,262.090 224.913 C 263.711 225.127,263.674 225.189,264.134 221.400 C 264.236 220.561,264.300 220.741,264.346 222.000 C 264.383 222.990,264.597 224.070,264.823 224.400 C 265.107 224.814,265.152 222.522,264.968 217.000 C 264.822 212.600,264.724 208.569,264.751 208.041 C 264.778 207.514,264.599 206.839,264.351 206.541 C 264.017 206.138,264.023 206.000,264.375 206.000 C 264.635 206.000,264.764 205.865,264.662 205.700 C 264.560 205.535,264.429 203.870,264.370 202.000 C 264.312 200.130,264.134 198.330,263.976 198.000 C 263.701 197.426,263.408 193.169,262.958 183.208 C 262.834 180.459,262.570 178.505,262.301 178.339 C 261.971 178.135,261.976 177.910,262.322 177.494 C 262.581 177.182,262.715 176.848,262.619 176.752 C 262.523 176.656,262.359 175.233,262.255 173.589 C 262.151 171.945,261.976 170.219,261.866 169.753 C 261.756 169.288,261.554 166.898,261.417 164.444 C 261.132 159.348,261.043 158.991,259.698 157.533 C 259.156 156.945,258.833 156.270,258.980 156.033 C 259.127 155.795,259.192 155.619,259.124 155.641 C 259.056 155.664,257.830 156.012,256.400 156.414 M259.980 164.600 C 259.999 165.920,260.370 171.050,260.804 176.000 C 261.576 184.799,261.789 189.779,261.190 185.000 C 259.778 173.744,258.820 159.805,259.568 161.400 C 259.775 161.840,259.960 163.280,259.980 164.600 M251.709 163.200 C 251.709 164.190,251.787 164.595,251.882 164.100 C 251.978 163.605,251.978 162.795,251.882 162.300 C 251.787 161.805,251.709 162.210,251.709 163.200 M252.000 166.353 C 252.000 167.013,252.180 167.664,252.400 167.800 C 252.633 167.944,252.800 167.545,252.800 166.847 C 252.800 166.187,252.620 165.536,252.400 165.400 C 252.167 165.256,252.000 165.655,252.000 166.353 M253.019 171.200 C 253.441 177.343,254.120 182.040,254.525 181.635 C 254.806 181.354,254.791 180.746,254.479 179.712 C 254.227 178.880,253.756 176.040,253.431 173.400 C 253.106 170.760,252.921 169.770,253.019 171.200 M262.104 193.800 C 262.235 197.286,262.194 198.569,261.997 197.200 C 261.675 194.970,261.477 187.727,261.747 188.033 C 261.827 188.125,261.988 190.720,262.104 193.800 M255.837 192.859 C 256.013 193.144,256.106 194.078,256.045 194.933 C 255.964 196.051,256.066 196.407,256.406 196.196 C 256.687 196.023,256.789 195.444,256.656 194.780 C 256.532 194.162,256.606 193.598,256.820 193.527 C 257.033 193.456,256.827 193.160,256.362 192.869 C 255.683 192.445,255.579 192.443,255.837 192.859 M256.854 198.244 C 256.741 200.000,258.086 210.217,258.481 210.600 C 258.763 210.874,258.812 210.558,258.635 209.600 C 258.494 208.830,258.115 206.130,257.794 203.600 C 257.059 197.809,256.930 197.073,256.854 198.244 M263.892 215.500 C 264.071 217.975,264.106 220.000,263.970 220.000 C 263.833 220.000,263.608 218.155,263.469 215.900 C 263.330 213.645,263.126 210.900,263.017 209.800 C 262.822 207.847,262.827 207.838,263.192 209.400 C 263.397 210.280,263.713 213.025,263.892 215.500 M258.892 212.800 C 258.883 213.570,259.105 216.000,259.386 218.200 C 259.666 220.400,259.904 221.480,259.914 220.600 C 259.923 219.720,259.701 217.290,259.420 215.200 C 259.139 213.110,258.901 212.030,258.892 212.800 M260.000 223.176 C 260.000 223.629,260.180 224.000,260.400 224.000 C 260.620 224.000,260.800 223.741,260.800 223.424 C 260.800 223.107,260.620 222.736,260.400 222.600 C 260.180 222.464,260.000 222.723,260.000 223.176 " stroke="none" fill="#784c04" fill-rule="evenodd"></path><path id="path4" d="M261.701 136.200 C 261.705 137.080,261.787 137.393,261.883 136.895 C 261.979 136.398,261.975 135.678,261.875 135.295 C 261.775 134.913,261.696 135.320,261.701 136.200 M250.700 144.282 C 251.195 144.378,252.005 144.378,252.500 144.282 C 252.995 144.187,252.590 144.109,251.600 144.109 C 250.610 144.109,250.205 144.187,250.700 144.282 " stroke="none" fill="#683e04" fill-rule="evenodd"></path><path id="path5" d="M261.700 148.676 C 262.085 148.776,262.715 148.776,263.100 148.676 C 263.485 148.575,263.170 148.493,262.400 148.493 C 261.630 148.493,261.315 148.575,261.700 148.676 " stroke="none" fill="#301c04" fill-rule="evenodd"></path><path id="path6" d="" stroke="none" fill="#341104" fill-rule="evenodd"></path><path id="path7" d="M244.093 139.600 C 244.093 140.370,244.175 140.685,244.276 140.300 C 244.376 139.915,244.376 139.285,244.276 138.900 C 244.175 138.515,244.093 138.830,244.093 139.600 M239.798 140.337 C 240.865 141.598,242.072 142.254,241.742 141.392 C 241.609 141.047,241.402 140.865,241.280 140.986 C 241.159 141.108,240.597 140.801,240.033 140.304 L 239.006 139.400 239.798 140.337 M249.119 144.449 C 249.583 144.861,252.784 145.149,253.001 144.799 C 253.111 144.620,252.220 144.412,251.019 144.337 C 249.819 144.262,248.964 144.312,249.119 144.449 M261.700 149.491 C 262.525 149.578,263.875 149.578,264.700 149.491 C 265.525 149.405,264.850 149.334,263.200 149.334 C 261.550 149.334,260.875 149.405,261.700 149.491 " stroke="none" fill="#180804" fill-rule="evenodd"></path><path id="path8" d="" stroke="none" fill="#402484" fill-rule="evenodd"></path></g></svg>
